/* XPM */ 
static const unsigned char * steady_48_32bit_xpm[] = {
"48 48 211 2",
"  	c None",
"! 	c black",
"# 	c #101010",
"$ 	c #1C1C1C",
"% 	c #2B2B2B",
"& 	c #313131",
"' 	c #353535",
"( 	c #3B3B3B",
") 	c #2F2F2F",
"* 	c #212121",
"+ 	c #0F0F0F",
", 	c #393939",
"- 	c #787878",
". 	c #A4A4A4",
"0 	c #C5C5C5",
"1 	c #D5D5D5",
"2 	c #E1E1E1",
"3 	c #E4E4E4",
"4 	c #E5E5E5",
"5 	c #E6E6E6",
"6 	c #E7E7E7",
"7 	c #E3E3E3",
"8 	c #BDBDBD",
"9 	c #8D8D8D",
": 	c #474747",
"; 	c #656565",
"< 	c #F1F1F1",
"= 	c #FAFAFA",
"> 	c white",
"? 	c #FEFEFE",
"@ 	c #F5F5F5",
"A 	c #BEBEBE",
"B 	c #505050",
"C 	c #B5B5B5",
"D 	c #ECECEC",
"E 	c #828282",
"F 	c #171717",
"G 	c #CACACA",
"H 	c #D6D6D6",
"I 	c #A5A5A5",
"J 	c #6F6F6F",
"K 	c #616161",
"L 	c #5E5E5E",
"M 	c #5A5A5A",
"N 	c #585858",
"O 	c #595959",
"P 	c #5D5D5D",
"Q 	c #666666",
"R 	c #7F7F7F",
"S 	c #ADADAD",
"T 	c #F2F2F2",
"U 	c #717171",
"V 	c #A0A0A0",
"W 	c #9B9B9B",
"X 	c #3F3F3F",
"Y 	c #545454",
"Z 	c #6A6A6A",
"[ 	c #6D6D6D",
"] 	c #6C6C6C",
"^ 	c #646464",
"_ 	c #494949",
"` 	c #1E1E1E",
"a 	c #050505",
"b 	c #636363",
"c 	c #CDCDCD",
"d 	c #EDEDED",
"e 	c #272727",
"f 	c #F7F7F7",
"g 	c #F0F0F0",
"h 	c #4E4E4E",
"i 	c #727272",
"j 	c #C0C0C0",
"k 	c #E9E9E9",
"l 	c #EAEAEA",
"m 	c #EBEBEB",
"n 	c #DBDBDB",
"o 	c #939393",
"p 	c #2A2A2A",
"q 	c #262626",
"r 	c #979797",
"s 	c #FCFCFC",
"t 	c #525252",
"u 	c #232323",
"v 	c #D7D7D7",
"w 	c #080808",
"x 	c #0C0C0C",
"y 	c #DFDFDF",
"z 	c #B8B8B8",
"{ 	c #767676",
"| 	c #E0E0E0",
"} 	c #848484",
"~ 	c #5B5B5B",
" !	c #4F4F4F",
"!!	c #8B8B8B",
"#!	c #E2E2E2",
"$!	c #909090",
"%!	c #F8F8F8",
"&!	c #242424",
"'!	c #0A0A0A",
"(!	c #3A3A3A",
")!	c #A9A9A9",
"*!	c #9A9A9A",
"+!	c #434343",
",!	c #F4F4F4",
"-!	c #131313",
".!	c #3C3C3C",
"0!	c #7D7D7D",
"1!	c #1D1D1D",
"2!	c #DADADA",
"3!	c #0E0E0E",
"4!	c #8C8C8C",
"5!	c #989898",
"6!	c #333333",
"7!	c #020202",
"8!	c #0D0D0D",
"9!	c #030303",
":!	c #A8A8A8",
";!	c #C6C6C6",
"<!	c #707070",
"=!	c #2D2D2D",
">!	c #BABABA",
"?!	c #B9B9B9",
"@!	c #626262",
"A!	c #4B4B4B",
"B!	c #0B0B0B",
"C!	c #C9C9C9",
"D!	c #B0B0B0",
"E!	c #B2B2B2",
"F!	c #010101",
"G!	c #D0D0D0",
"H!	c #ABABAB",
"I!	c #090909",
"J!	c #CBCBCB",
"K!	c #999999",
"L!	c #A6A6A6",
"M!	c #464646",
"N!	c #D1D1D1",
"O!	c #838383",
"P!	c #6B6B6B",
"Q!	c #575757",
"R!	c #5C5C5C",
"S!	c #565656",
"T!	c #4A4A4A",
"U!	c #1F1F1F",
"V!	c #040404",
"W!	c #D4D4D4",
"X!	c #A2A2A2",
"Y!	c #F6F6F6",
"Z!	c #EFEFEF",
"[!	c #F3F3F3",
"]!	c #CECECE",
"^!	c #B4B4B4",
"_!	c #919191",
"`!	c #CFCFCF",
"a!	c #343434",
"b!	c #C8C8C8",
"c!	c #EEEEEE",
"d!	c #FDFDFD",
"e!	c #AAAAAA",
"f!	c #383838",
"g!	c #323232",
"h!	c #969696",
"i!	c #B7B7B7",
"j!	c #282828",
"k!	c #535353",
"l!	c #A7A7A7",
"m!	c #C4C4C4",
"n!	c #1B1B1B",
"o!	c #BCBCBC",
"p!	c #AFAFAF",
"q!	c #555555",
"r!	c #B1B1B1",
"s!	c #515151",
"t!	c #D3D3D3",
"u!	c #686868",
"v!	c #373737",
"w!	c #8F8F8F",
"x!	c #484848",
"y!	c #444444",
"z!	c #FBFBFB",
"{!	c #F9F9F9",
"|!	c #E8E8E8",
"}!	c #222222",
"~!	c #1A1A1A",
" #	c #161616",
"!#	c #181818",
"##	c #191919",
"$#	c #9E9E9E",
"%#	c #B6B6B6",
"&#	c #ACACAC",
"'#	c #D8D8D8",
"(#	c #D2D2D2",
")#	c #606060",
"*#	c #8A8A8A",
"+#	c #868686",
",#	c #CCCCCC",
"-#	c #C2C2C2",
".#	c #757575",
"0#	c #292929",
"1#	c #5F5F5F",
"2#	c #A1A1A1",
"3#	c #414141",
"4#	c #3E3E3E",
"5#	c #424242",
"6#	c #404040",
"7#	c #3D3D3D",
"8#	c #DEDEDE",
"9#	c #2C2C2C",
":#	c #B3B3B3",
";#	c #898989",
"<#	c #7E7E7E",
"! ! ! ! ! ! ! ! ! ! ! ! ! ! ! ! ! ! ! ! ! ! ! ! ! ! ! ! ! ! ! ! ! ! ! ! ! ! ! ! ! ! ! ! ! ! ! ! ",
"! ! ! ! ! ! ! ! ! ! ! ! ! ! ! ! ! ! ! ! ! ! ! ! ! ! ! ! ! ! ! ! ! ! ! ! ! ! ! ! ! ! ! ! ! ! ! ! ",
"! ! ! ! ! ! ! ! ! ! ! ! ! ! ! ! ! ! ! ! ! ! ! ! ! ! ! ! ! ! ! ! ! ! ! ! ! ! ! ! ! ! ! ! ! ! ! ! ",
"! ! ! ! ! ! ! ! ! ! ! ! ! ! ! ! ! ! ! ! ! ! ! ! ! ! ! ! ! ! ! ! ! ! ! ! ! ! ! ! ! ! ! ! ! ! ! ! ",
"! ! ! ! ! ! ! ! ! ! ! ! ! ! ! ! ! ! ! ! ! ! ! ! ! ! ! ! ! ! ! ! ! ! ! ! ! ! ! ! ! ! ! ! ! ! ! ! ",
"! ! ! ! ! ! ! ! ! ! ! ! ! ! ! ! ! ! ! ! ! ! ! ! ! ! ! ! ! ! ! ! ! ! ! ! ! ! ! ! ! ! ! ! ! ! ! ! ",
"! ! ! ! ! ! ! ! ! ! ! ! ! ! ! # $ % & ' ( ( ( ( ( ( ( ( ( ( ( ' ) * + ! ! ! ! ! ! ! ! ! ! ! ! ! ",
"! ! ! ! ! ! ! ! ! ! ! , - . 0 1 2 3 4 5 6 6 6 6 6 6 6 6 6 6 6 5 4 7 1 8 9 : ! ! ! ! ! ! ! ! ! ! ",
"! ! ! ! ! ! ! ! ! ; 8 3 < = > > > > > > > > > > > > > > > > > > > > > ? @ 6 A B ! ! ! ! ! ! ! ! ",
"! ! ! ! ! ! ! * C D > > > > > > > > > > > > > > > > > > > > > > > > > > > > > 6 E ! ! ! ! ! ! ! ",
"! ! ! ! ! ! F G ? > > > > H I E J K L M N N N N N N N N N N O P Q R S 2 > > > > T U ! ! ! ! ! ! ",
"! ! ! ! ! ! V > > > > W X ' Y Z U [ ] ] ] ] ] ] ] ] ] ] ] ] [ ^ _ ` a * b c > > > d e ! ! ! ! ! ",
"! ! ! ! ! ' f > > g h # i j 1 7 k l l m m m m m m m m m m m m 5 n G o p ! q C > > > 9 ! ! ! ! ! ",
"! ! ! ! ! r > > > N ! V d > > > > > > > > > > > > > > > > > > > > > s H t ! u 4 > > v w ! ! ! ! ",
"! ! ! ! x y > > z ! { > > | } ~ h  ! ! ! ! ! ! ! ! ! ! ! !h t ; !!H > > #!% ! $!> > %!&!! ! ! ! ",
"! ! ! ! ' s > > t '!5 > y (!x ! ! ! ! ! ! ! ! ! ! ! ! ! ! ! ! ! + & )!> > *!! P > > > +!! ! ! ! ",
"! ! ! ! b > > ,!-!.!> > 0!! ! ! ! ! ! ! ! ! ! ! ! ! ! ! ! ! ! ! ! ! 1!2!> 4 3!e 4!!!4!q ! ! ! ! ",
"! ! ! ! 4!> > n ! ; > ? .!! ! ! ! ! ! ! ! ! ! ! ! ! ! ! ! ! ! ! ! ! ! 5!> > 6!7!8!x x 9!! ! ! ! ",
"! ! ! ! :!> > ;!! <!> ? =!! ! ! ! ! ! ! ! ! ! ! ! ! ! ! ! ! ! ! ! ! ! h 8 A ) ! ! ! ! ! ! ! ! ! ",
"! ! ! ! >!> > ?!! @!> > A!! ! ! ! ! ! ! ! ! ! ! ! ! ! ! ! ! ! ! ! ! ! 8!p p B!! ! ! ! ! ! ! ! ! ",
"! ! ! ! C!> > D!! ' > > E!w ! ! ! ! ! ! ! ! ! ! ! ! ! ! ! ! ! ! ! ! ! ! ! ! ! ! ! ! ! ! ! ! ! ! ",
"! ! ! F!G!> > H!! I!J!> s K!.!'!! ! ! ! ! ! ! ! ! ! ! ! ! ! ! ! ! ! ! ! ! ! ! ! ! ! ! ! ! ! ! ! ",
"! ! ! a 1 > > L!! ! M!m > > N!I O!P!L O Q!Q!~ R!~ ~ ~ R!~ S!T!, U!! ! ! ! ! ! ! ! ! ! ! ! ! ! ! ",
"! ! ! V!W!> > X!! ! ! M C!> > > > > Y!T Z!Z!T [![![![![![!d 2 ]!^!_!N F ! ! ! ! ! ! ! ! ! ! ! ! ",
"! ! ! F!`!> > X!! ! ! ! a!- H!b!y c!= d!> > > > > > > > > > > > > > c!e!f!! ! ! ! ! ! ! ! ! ! ! ",
"! ! ! F!`!> > X!! ! ! ! ! ! # g!_ N b Q Z ] ] ] ] ] ] ] ] i R h!i!7 > > `!j!! ! ! ! ! ! ! ! ! ! ",
"! ! ! F!J!> > X!! ! ! ! ! ! ! ! ! ! ! ! ! ! ! ! ! ! ! ! ! ! ! ! $ k!i!> > l!7!! ! ! ! ! ! ! ! ! ",
"! ! ! ! m!> > I ! ! ! ! ! ! ! ! ! ! ! ! ! ! ! ! ! ! ! ! ! ! ! ! ! ! n!G > = u ! ! ! ! ! ! ! ! ! ",
"! ! ! ! o!> > p!! ! ! ! ! ! ! ! ! ! ! ! ! ! ! ! ! ! ! ! ! ! ! ! ! ! ! P > > q!! ! ! ! ! ! ! ! ! ",
"! ! ! ! r!> > A ! -!s!t n!! ! ! ! ! ! ! ! ! ! ! ! ! ! ! ! ! ! ! ! ! ! ) > > ] ! ! ! ! ! ! ! ! ! ",
"! ! ! ! . > > t!F!a!? s u!! ! ! ! ! ! ! ! ! ! ! ! ! ! ! ! ! ! ! ! ! ! v!? > P!! ! ! ! ! ! ! ! ! ",
"! ! ! ! w!> > m 3!` ? > e!! ! ! ! ! ! ! ! ! ! ! ! ! ! ! ! ! ! ! ! ! ! Z > > h + _ : x!-!! ! ! ! ",
"! ! ! ! J > > s g!F!b!> T x!a ! ! ! ! ! ! ! ! ! ! ! ! ! ! ! ! ! ! ! 1!G > = $ y!z!{!= X ! ! ! ! ",
"! ! ! ! : > > > U ! K s > |!<!g!}!~!F  # # # # # # # # # # #!#n!q +!S > > j ! ] > > > g!! ! ! ! ",
"! ! ! ! ##c!> > b!'!! I {!> > 6 >!I $#*!*!*!*!*!*!*!*!*!*!*!$#)!;!= > > l y!9!%#> > k -!! ! ! ! ",
"! ! ! ! ! &#> > > i 3!! 9 '#[!> > > > > > > > > > > > > > > > > > > d (#)#! k!d!> > ?!F!! ! ! ! ",
"! ! ! ! ! +!%!> > > *#e 9!( +#^!C!c ,#,#,#,#,#,#,#,#,#,#,#,#,#,#-#L!.#0#3!R!c!> > > 1#! ! ! ! ! ",
"! ! ! ! ! ! 2#? > > > d l!b 3#4#M!_ 5#X 6#6#6#6#6#6#6#6#6#6#6#y!( a!7#[ A > > > > G '!! ! ! ! ! ",
"! ! ! ! ! ! + >!Y!> > > > > > d!Z!l 5 3 4 4 4 4 4 4 4 4 4 4 4 k g d!> > > > > ? 8#g!! ! ! ! ! ! ",
"! ! ! ! ! ! ! B!_!4 ,!? > > > > > > > > > > > > > > > > > > > > > > > > > s c!j g!! ! ! ! ! ! ! ",
"! ! ! ! ! ! ! ! ! 9#E A 2 l c!T ,!@ @ @ @ @ @ @ @ @ @ @ @ @ @ @ @ [!Z!l | :#K V!! ! ! ! ! ! ! ! ",
"! ! ! ! ! ! ! ! ! ! ! ! n!6#R!.#} *#*#*#*#*#*#*#*#*#*#*#*#*#*#*#;#<#^ y!##! ! ! ! ! ! ! ! ! ! ! ",
"! ! ! ! ! ! ! ! ! ! ! ! ! ! ! ! ! ! ! ! ! ! ! ! ! ! ! ! ! ! ! ! ! ! ! ! ! ! ! ! ! ! ! ! ! ! ! ! ",
"! ! ! ! ! ! ! ! ! ! ! ! ! ! ! ! ! ! ! ! ! ! ! ! ! ! ! ! ! ! ! ! ! ! ! ! ! ! ! ! ! ! ! ! ! ! ! ! ",
"! ! ! ! ! ! ! ! ! ! ! ! ! ! ! ! ! ! ! ! ! ! ! ! ! ! ! ! ! ! ! ! ! ! ! ! ! ! ! ! ! ! ! ! ! ! ! ! ",
"! ! ! ! ! ! ! ! ! ! ! ! ! ! ! ! ! ! ! ! ! ! ! ! ! ! ! ! ! ! ! ! ! ! ! ! ! ! ! ! ! ! ! ! ! ! ! ! ",
"! ! ! ! ! ! ! ! ! ! ! ! ! ! ! ! ! ! ! ! ! ! ! ! ! ! ! ! ! ! ! ! ! ! ! ! ! ! ! ! ! ! ! ! ! ! ! ! ",
"! ! ! ! ! ! ! ! ! ! ! ! ! ! ! ! ! ! ! ! ! ! ! ! ! ! ! ! ! ! ! ! ! ! ! ! ! ! ! ! ! ! ! ! ! ! ! ! "};